<svg width="40" height="40" viewBox="0 0 40 40" fill="currentColor" xmlns="http://www.w3.org/2000/svg">
  <path d="M20 40C31.0457 40 40 31.0457 40 20C40 8.9543 31.0457 0 20 0C8.9543 0 0 8.9543 0 20C0 31.0457 8.9543 40 20 40Z" />
  <path d="M24.8996 9.99982V13.1998H23.0996C23.0996 13.1998 21.4996 12.9998 21.4996 14.4998V16.9998H24.7996L24.3996 20.3998H21.4996V29.9998H17.6996V20.2998H15.0996V16.9998H17.7996V14.0998C17.7996 14.0998 17.4996 12.4998 18.8996 11.1998C20.2996 9.89982 22.1996 9.99982 22.1996 9.99982H24.8996Z" fill="#990000"/>
</svg>