<svg width="40" height="40" viewBox="0 0 40 40" fill="none" xmlns="http://www.w3.org/2000/svg">
  <path d="M20 40C31.0457 40 40 31.0457 40 20C40 8.9543 31.0457 0 20 0C8.9543 0 0 8.9543 0 20C0 31.0457 8.9543 40 20 40Z" fill="white"/>
  <path d="M24.3004 29.9999H15.6004C12.5004 29.9999 9.90039 27.4999 9.90039 24.2999V15.5999C9.90039 12.4999 12.4004 9.8999 15.6004 9.8999H24.3004C27.4004 9.8999 30.0004 12.3999 30.0004 15.5999V24.2999C30.0004 27.4999 27.5004 29.9999 24.3004 29.9999ZM24.3004 28.4999C25.4004 28.4999 26.5004 28.0999 27.2004 27.2999C27.9004 26.4999 28.4004 25.4999 28.4004 24.3999V15.6999C28.4004 14.5999 28.0004 13.4999 27.2004 12.7999C26.4004 11.9999 25.4004 11.5999 24.3004 11.5999H15.6004C14.5004 11.5999 13.4004 11.9999 12.7004 12.7999C11.9004 13.5999 11.5004 14.5999 11.5004 15.6999V24.3999C11.5004 25.4999 11.9004 26.5999 12.7004 27.2999C13.5004 27.9999 14.5004 28.4999 15.6004 28.4999H24.3004Z" fill="#990000"/>
  <path d="M25.4006 19.9C25.4006 22.9 23.0006 25.3 20.0006 25.3C17.0006 25.3 14.6006 22.9 14.6006 19.9C14.6006 16.9 17.0006 14.5 20.0006 14.5C23.0006 14.5 25.4006 17 25.4006 19.9ZM20.0006 16.4C18.1006 16.4 16.5006 18 16.5006 19.9C16.5006 21.8 18.1006 23.4 20.0006 23.4C21.9006 23.4 23.5006 21.8 23.5006 19.9C23.5006 18 21.9006 16.4 20.0006 16.4Z" fill="#990000"/>
  <path d="M25.5002 15.8002C26.2182 15.8002 26.8002 15.2182 26.8002 14.5002C26.8002 13.7822 26.2182 13.2002 25.5002 13.2002C24.7822 13.2002 24.2002 13.7822 24.2002 14.5002C24.2002 15.2182 24.7822 15.8002 25.5002 15.8002Z" fill="#990000"/>
</svg>