<svg width="40" height="40" viewBox="0 0 40 40" fill="none" xmlns="http://www.w3.org/2000/svg">
  <path d="M20 40C31.0457 40 40 31.0457 40 20C40 8.9543 31.0457 0 20 0C8.9543 0 0 8.9543 0 20C0 31.0457 8.9543 40 20 40Z" fill="white"/>
  <path d="M11.3 16H15V28H11.3V16ZM13.2 10C14.4 10 15.4 11 15.4 12.2C15.4 13.4 14.4 14.4 13.2 14.4C12 14.4 11 13.4 11 12.2C11 11 12 10 13.2 10Z" fill="#990000"/>
  <path d="M17.3999 16.0002H20.9999V17.6002C21.4999 16.7002 22.6999 15.7002 24.4999 15.7002C28.2999 15.7002 28.9999 18.2002 28.9999 21.4002V28.0002H25.2999V22.2002C25.2999 20.8002 25.2999 19.0002 23.3999 19.0002C21.4999 19.0002 21.1999 20.5002 21.1999 22.1002V28.0002H17.4999V16.0002H17.3999Z" fill="#990000"/>
</svg>